<svg xmlns="http://www.w3.org/2000/svg" xmlns:xlink="http://www.w3.org/1999/xlink" width="100" zoomAndPan="magnify" viewBox="0 0 75 74.999997" height="100" preserveAspectRatio="xMidYMid meet" version="1.0"><defs><clipPath id="7d67a248b6"><path d="M 4.871094 2.601562 L 70.121094 2.601562 L 70.121094 72.351562 L 4.871094 72.351562 Z M 4.871094 2.601562 " clip-rule="nonzero"/></clipPath></defs><g clip-path="url(#7d67a248b6)"><path fill="#000000" d="M 66.617188 42.5625 C 66.0625 41.886719 65.445312 41.253906 64.753906 40.667969 C 64.289062 40.140625 63.792969 39.628906 63.25 39.164062 C 63.101562 38.984375 62.933594 38.804688 62.769531 38.625 C 63.085938 38.324219 63.414062 38.023438 63.6875 37.707031 C 66.226562 34.789062 67.519531 31.257812 67.519531 27.210938 C 67.519531 18.761719 61.144531 13.515625 54.710938 7.5625 C 51.269531 4.390625 46.398438 2.765625 40.246094 2.765625 L 4.871094 2.765625 L 4.871094 64.738281 L 12.386719 72.253906 L 45.238281 72.253906 C 46.652344 72.253906 49.3125 72 53.371094 71.472656 C 56.726562 71.039062 59.238281 70.316406 61.054688 69.265625 C 63.851562 67.65625 66.078125 65.445312 67.6875 62.679688 C 69.292969 59.914062 70.121094 56.769531 70.121094 53.34375 C 70.121094 49.070312 68.933594 45.464844 66.617188 42.5625 Z M 66.617188 42.5625 " fill-opacity="1" fill-rule="nonzero"/></g><path fill="#4d96ff" d="M 7.878906 5.773438 L 40.246094 5.773438 C 45.644531 5.773438 49.78125 7.109375 52.667969 9.785156 C 55.554688 12.464844 56.996094 15.769531 56.996094 19.710938 C 56.996094 23.015625 55.957031 25.859375 53.898438 28.21875 C 52.53125 29.796875 50.515625 31.046875 47.871094 31.964844 C 51.882812 32.925781 54.847656 34.59375 56.742188 36.9375 C 58.636719 39.300781 59.582031 42.246094 59.582031 45.808594 C 59.582031 48.710938 58.90625 51.3125 57.550781 53.628906 C 56.199219 55.941406 54.363281 57.777344 52.019531 59.128906 C 50.578125 59.972656 48.382812 60.574219 45.449219 60.964844 C 41.554688 61.476562 38.96875 61.730469 37.707031 61.730469 L 7.878906 61.730469 Z M 25.320312 27.722656 L 32.835938 27.722656 C 35.527344 27.722656 37.40625 27.257812 38.457031 26.324219 C 39.511719 25.394531 40.039062 24.054688 40.039062 22.296875 C 40.039062 20.671875 39.511719 19.394531 38.457031 18.476562 C 37.40625 17.558594 35.558594 17.109375 32.941406 17.109375 L 25.320312 17.109375 Z M 25.320312 49.703125 L 34.128906 49.703125 C 37.105469 49.703125 39.210938 49.175781 40.429688 48.125 C 41.644531 47.074219 42.261719 45.644531 42.261719 43.871094 C 42.261719 42.214844 41.660156 40.894531 40.441406 39.886719 C 39.242188 38.878906 37.121094 38.382812 34.082031 38.382812 L 25.320312 38.382812 Z M 25.320312 49.703125 " fill-opacity="1" fill-rule="nonzero"/></svg>